<svg xmlns="http://www.w3.org/2000/svg" width="32" height="32" viewBox="0 0 32 32" fill="none">
  <rect width="32" height="32" rx="8" fill="#E0E7FF"/>
  <g transform="translate(4 4)" stroke="#4F46E5" stroke-width="1.5" stroke-linecap="round" stroke-linejoin="round" fill="none">
    <path d="M13 4.5a1.5 1.5 0 1 0 3 0 1.5 1.5 0 0 0-3 0"/>
    <path d="m12 6.5-2 2"/>
    <path d="m16 2.5 2-2"/>
    <path d="m8 10.5-2 2"/>
    <path d="M10 8.5 3.5 15a2.1 2.1 0 0 0 3 3l6.5-6.5"/>
    <path d="M10 8.5c-.83-1.77-.5-3.5.5-4.59"/>
    <path d="M13 11.5c1.77.83 3.5.5 4.59-.5"/>
    <path d="m2 22 3-3"/>
    <path d="m7 22 2-2"/>
    <path d="m2 17 2 2"/>
  </g>
</svg>
